<svg width="436" height="436" viewBox="0 0 436 436" fill="none" xmlns="http://www.w3.org/2000/svg">
<circle cx="218" cy="218" r="218" fill="#00C136"/>
<path d="M128 289L128 218L128 147H174.043C183.886 147 192.434 148.88 199.687 152.641C207.07 156.402 212.768 161.719 216.783 168.592C220.928 175.335 223 183.31 223 192.518V217.903V243.288C223 252.365 220.928 260.341 216.783 267.214C212.768 274.087 207.07 279.468 199.687 283.359C192.434 287.12 183.886 289 174.043 289H128Z" stroke="white" stroke-width="24" stroke-linejoin="round"/>
<path d="M308 289H271.917C262.081 289 253.54 287.12 246.294 283.359C238.917 279.468 233.223 274.087 229.212 267.214C225.071 260.341 223 252.365 223 243.288V217.903V192.518C223 183.31 225.071 175.335 229.212 168.592C233.223 161.719 238.917 156.402 246.294 152.641C253.54 148.88 262.081 147 271.917 147H308" stroke="white" stroke-width="24" stroke-linecap="round" stroke-linejoin="round"/>
</svg>
